<svg width="22" height="22" viewBox="0 0 22 22" fill="none" xmlns="http://www.w3.org/2000/svg">
<rect width="22" height="22" rx="5" fill="#8E323D"/>
<path d="M8.88414 17.0165H10.0598V13.9591C10.0598 13.7626 9.92005 13.5941 9.72817 13.5338C7.88927 12.9567 6.6033 11.1937 6.78641 9.16608L7.25332 4.01439C7.27389 3.77576 7.47664 3.59497 7.71465 3.59497H14.2841C14.523 3.59497 14.7251 3.77576 14.7472 4.01439L15.2135 9.16608C15.3973 11.1942 14.1104 12.9567 12.271 13.5364C12.0795 13.5968 11.9401 13.7651 11.9401 13.9614V17.0165H13.1161C13.7663 17.0165 14.2917 17.5337 14.2917 18.1736C14.2917 18.3001 14.1852 18.405 14.0566 18.405H7.94467C7.81606 18.405 7.70954 18.3001 7.70954 18.1736C7.70878 17.5343 8.23475 17.0165 8.88414 17.0165Z" fill="white"/>
</svg>
